<mxfile host="" modified="2020-06-02T10:24:15.058Z" agent="5.0 (Macintosh; Intel Mac OS X 10_15_4) AppleWebKit/537.36 (KHTML, like Gecko) Code/1.45.1 Chrome/78.0.3904.130 Electron/7.2.4 Safari/537.36" etag="eVlQKB28O_sHovUh4O0A" version="13.1.3">
    <diagram id="6hGFLwfOUW9BJ-s0fimq" name="Page-1">
        <mxGraphModel dx="1518" dy="785" grid="1" gridSize="10" guides="1" tooltips="1" connect="1" arrows="1" fold="1" page="1" pageScale="1" pageWidth="827" pageHeight="1169" math="0" shadow="0">
            <root>
                <mxCell id="0"/>
                <mxCell id="1" parent="0"/>
                <mxCell id="4" style="edgeStyle=orthogonalEdgeStyle;rounded=0;orthogonalLoop=1;jettySize=auto;html=1;exitX=1;exitY=0.5;exitDx=0;exitDy=0;entryX=0;entryY=0.5;entryDx=0;entryDy=0;" edge="1" parent="1" source="2" target="3">
                    <mxGeometry relative="1" as="geometry"/>
                </mxCell>
                <mxCell id="5" value="Y" style="edgeLabel;html=1;align=center;verticalAlign=middle;resizable=0;points=[];" vertex="1" connectable="0" parent="4">
                    <mxGeometry x="-0.4667" y="1" relative="1" as="geometry">
                        <mxPoint as="offset"/>
                    </mxGeometry>
                </mxCell>
                <mxCell id="39" value="N" style="edgeStyle=orthogonalEdgeStyle;rounded=0;orthogonalLoop=1;jettySize=auto;html=1;exitX=0.5;exitY=1;exitDx=0;exitDy=0;" edge="1" parent="1" source="2" target="6">
                    <mxGeometry relative="1" as="geometry"/>
                </mxCell>
                <mxCell id="2" value="TCP_CLSE" style="rhombus;whiteSpace=wrap;html=1;" vertex="1" parent="1">
                    <mxGeometry x="70" y="185" width="80" height="30" as="geometry"/>
                </mxCell>
                <mxCell id="3" value="&lt;div style=&quot;color: rgb(171 , 178 , 191) ; background-color: rgb(40 , 44 , 52) ; font-family: &amp;#34;monaco&amp;#34; , &amp;#34;menlo&amp;#34; , &amp;#34;monaco&amp;#34; , &amp;#34;courier new&amp;#34; , monospace ; font-size: 13px ; line-height: 20px&quot;&gt;discard&lt;/div&gt;" style="rounded=0;whiteSpace=wrap;html=1;" vertex="1" parent="1">
                    <mxGeometry x="240" y="185" width="120" height="30" as="geometry"/>
                </mxCell>
                <mxCell id="8" style="edgeStyle=orthogonalEdgeStyle;rounded=0;orthogonalLoop=1;jettySize=auto;html=1;exitX=1;exitY=0.5;exitDx=0;exitDy=0;entryX=0;entryY=0.5;entryDx=0;entryDy=0;" edge="1" parent="1" source="6" target="7">
                    <mxGeometry relative="1" as="geometry"/>
                </mxCell>
                <mxCell id="40" value="Y" style="edgeLabel;html=1;align=center;verticalAlign=middle;resizable=0;points=[];" vertex="1" connectable="0" parent="8">
                    <mxGeometry x="-0.15" y="-2" relative="1" as="geometry">
                        <mxPoint as="offset"/>
                    </mxGeometry>
                </mxCell>
                <mxCell id="44" style="edgeStyle=orthogonalEdgeStyle;rounded=0;orthogonalLoop=1;jettySize=auto;html=1;exitX=0.5;exitY=1;exitDx=0;exitDy=0;" edge="1" parent="1" source="6" target="43">
                    <mxGeometry relative="1" as="geometry"/>
                </mxCell>
                <mxCell id="45" value="N" style="edgeLabel;html=1;align=center;verticalAlign=middle;resizable=0;points=[];" vertex="1" connectable="0" parent="44">
                    <mxGeometry x="0.2511" y="4" relative="1" as="geometry">
                        <mxPoint as="offset"/>
                    </mxGeometry>
                </mxCell>
                <mxCell id="6" value="TCP_LISTEN" style="rhombus;whiteSpace=wrap;html=1;" vertex="1" parent="1">
                    <mxGeometry x="70" y="255" width="80" height="30" as="geometry"/>
                </mxCell>
                <mxCell id="11" style="edgeStyle=orthogonalEdgeStyle;rounded=0;orthogonalLoop=1;jettySize=auto;html=1;exitX=0.5;exitY=1;exitDx=0;exitDy=0;" edge="1" parent="1" source="7" target="9">
                    <mxGeometry relative="1" as="geometry"/>
                </mxCell>
                <mxCell id="12" value="N" style="edgeLabel;html=1;align=center;verticalAlign=middle;resizable=0;points=[];" vertex="1" connectable="0" parent="11">
                    <mxGeometry x="0.36" y="2" relative="1" as="geometry">
                        <mxPoint as="offset"/>
                    </mxGeometry>
                </mxCell>
                <mxCell id="20" value="Y" style="edgeStyle=orthogonalEdgeStyle;rounded=0;orthogonalLoop=1;jettySize=auto;html=1;exitX=1;exitY=0.5;exitDx=0;exitDy=0;entryX=0;entryY=0.5;entryDx=0;entryDy=0;" edge="1" parent="1" source="7" target="19">
                    <mxGeometry relative="1" as="geometry"/>
                </mxCell>
                <mxCell id="7" value="th-&amp;gt;ack" style="rhombus;whiteSpace=wrap;html=1;" vertex="1" parent="1">
                    <mxGeometry x="230" y="255" width="80" height="30" as="geometry"/>
                </mxCell>
                <mxCell id="14" style="edgeStyle=orthogonalEdgeStyle;rounded=0;orthogonalLoop=1;jettySize=auto;html=1;exitX=0.5;exitY=1;exitDx=0;exitDy=0;entryX=0.5;entryY=0;entryDx=0;entryDy=0;" edge="1" parent="1" source="9" target="16">
                    <mxGeometry relative="1" as="geometry">
                        <mxPoint x="270" y="375" as="targetPoint"/>
                    </mxGeometry>
                </mxCell>
                <mxCell id="15" value="N" style="edgeLabel;html=1;align=center;verticalAlign=middle;resizable=0;points=[];" vertex="1" connectable="0" parent="14">
                    <mxGeometry x="0.36" y="1" relative="1" as="geometry">
                        <mxPoint as="offset"/>
                    </mxGeometry>
                </mxCell>
                <mxCell id="22" value="Y" style="edgeStyle=orthogonalEdgeStyle;rounded=0;orthogonalLoop=1;jettySize=auto;html=1;exitX=1;exitY=0.5;exitDx=0;exitDy=0;" edge="1" parent="1" source="9">
                    <mxGeometry relative="1" as="geometry">
                        <mxPoint x="350" y="330" as="targetPoint"/>
                    </mxGeometry>
                </mxCell>
                <mxCell id="9" value="th-&amp;gt;rst" style="rhombus;whiteSpace=wrap;html=1;" vertex="1" parent="1">
                    <mxGeometry x="230" y="315" width="80" height="30" as="geometry"/>
                </mxCell>
                <mxCell id="23" value="" style="edgeStyle=orthogonalEdgeStyle;rounded=0;orthogonalLoop=1;jettySize=auto;html=1;exitX=1;exitY=0.5;exitDx=0;exitDy=0;" edge="1" parent="1" source="16" target="21">
                    <mxGeometry relative="1" as="geometry"/>
                </mxCell>
                <mxCell id="29" value="N" style="edgeLabel;html=1;align=center;verticalAlign=middle;resizable=0;points=[];" vertex="1" connectable="0" parent="23">
                    <mxGeometry x="-0.397" y="-1" relative="1" as="geometry">
                        <mxPoint as="offset"/>
                    </mxGeometry>
                </mxCell>
                <mxCell id="26" value="Y" style="edgeStyle=orthogonalEdgeStyle;rounded=0;orthogonalLoop=1;jettySize=auto;html=1;exitX=0.5;exitY=1;exitDx=0;exitDy=0;entryX=0.5;entryY=0;entryDx=0;entryDy=0;" edge="1" parent="1" source="16" target="24">
                    <mxGeometry relative="1" as="geometry"/>
                </mxCell>
                <mxCell id="16" value="th-&amp;gt;syn" style="rhombus;whiteSpace=wrap;html=1;" vertex="1" parent="1">
                    <mxGeometry x="230" y="370" width="80" height="30" as="geometry"/>
                </mxCell>
                <mxCell id="19" value="&lt;div style=&quot;color: rgb(171 , 178 , 191) ; background-color: rgb(40 , 44 , 52) ; font-family: &amp;#34;monaco&amp;#34; , &amp;#34;menlo&amp;#34; , &amp;#34;monaco&amp;#34; , &amp;#34;courier new&amp;#34; , monospace ; font-size: 13px ; line-height: 20px&quot;&gt;return 1&lt;/div&gt;" style="rounded=0;whiteSpace=wrap;html=1;" vertex="1" parent="1">
                    <mxGeometry x="354" y="255" width="120" height="30" as="geometry"/>
                </mxCell>
                <mxCell id="21" value="&lt;div style=&quot;color: rgb(171 , 178 , 191) ; background-color: rgb(40 , 44 , 52) ; font-family: &amp;#34;monaco&amp;#34; , &amp;#34;menlo&amp;#34; , &amp;#34;monaco&amp;#34; , &amp;#34;courier new&amp;#34; , monospace ; font-size: 13px ; line-height: 20px&quot;&gt;discard&lt;/div&gt;" style="rounded=0;whiteSpace=wrap;html=1;" vertex="1" parent="1">
                    <mxGeometry x="354" y="315" width="120" height="30" as="geometry"/>
                </mxCell>
                <mxCell id="27" style="edgeStyle=orthogonalEdgeStyle;rounded=0;orthogonalLoop=1;jettySize=auto;html=1;exitX=1;exitY=0.5;exitDx=0;exitDy=0;entryX=0.5;entryY=1;entryDx=0;entryDy=0;" edge="1" parent="1" source="24" target="21">
                    <mxGeometry relative="1" as="geometry">
                        <mxPoint x="410" y="365" as="targetPoint"/>
                    </mxGeometry>
                </mxCell>
                <mxCell id="28" value="Y" style="edgeLabel;html=1;align=center;verticalAlign=middle;resizable=0;points=[];" vertex="1" connectable="0" parent="27">
                    <mxGeometry x="-0.2977" y="2" relative="1" as="geometry">
                        <mxPoint x="-37" y="2" as="offset"/>
                    </mxGeometry>
                </mxCell>
                <mxCell id="32" style="edgeStyle=orthogonalEdgeStyle;rounded=0;orthogonalLoop=1;jettySize=auto;html=1;exitX=0.5;exitY=1;exitDx=0;exitDy=0;entryX=0.5;entryY=0;entryDx=0;entryDy=0;" edge="1" parent="1" source="24" target="31">
                    <mxGeometry relative="1" as="geometry"/>
                </mxCell>
                <mxCell id="41" value="N" style="edgeLabel;html=1;align=center;verticalAlign=middle;resizable=0;points=[];" vertex="1" connectable="0" parent="32">
                    <mxGeometry x="-0.1333" y="1" relative="1" as="geometry">
                        <mxPoint as="offset"/>
                    </mxGeometry>
                </mxCell>
                <mxCell id="24" value="th-&amp;gt;fin" style="rhombus;whiteSpace=wrap;html=1;" vertex="1" parent="1">
                    <mxGeometry x="230" y="430" width="80" height="30" as="geometry"/>
                </mxCell>
                <mxCell id="31" value="&lt;div style=&quot;color: rgb(171 , 178 , 191) ; background-color: rgb(40 , 44 , 52) ; font-family: &amp;#34;monaco&amp;#34; , &amp;#34;menlo&amp;#34; , &amp;#34;monaco&amp;#34; , &amp;#34;courier new&amp;#34; , monospace ; font-size: 13px ; line-height: 20px&quot;&gt;&lt;span style=&quot;color: #61afef&quot;&gt;conn_request&lt;/span&gt;(sk, skb)&lt;/div&gt;" style="shape=process;whiteSpace=wrap;html=1;backgroundOutline=1;size=0.043478260869565216;" vertex="1" parent="1">
                    <mxGeometry x="160" y="490" width="220" height="30" as="geometry"/>
                </mxCell>
                <mxCell id="37" style="edgeStyle=orthogonalEdgeStyle;rounded=0;orthogonalLoop=1;jettySize=auto;html=1;exitX=0.5;exitY=1;exitDx=0;exitDy=0;entryX=0.5;entryY=0;entryDx=0;entryDy=0;" edge="1" parent="1" source="33" target="34">
                    <mxGeometry relative="1" as="geometry"/>
                </mxCell>
                <mxCell id="33" value="&lt;div style=&quot;color: rgb(171 , 178 , 191) ; background-color: rgb(40 , 44 , 52) ; font-family: &amp;#34;monaco&amp;#34; , &amp;#34;menlo&amp;#34; , &amp;#34;monaco&amp;#34; , &amp;#34;courier new&amp;#34; , monospace ; font-size: 13px ; line-height: 20px&quot;&gt;&lt;div style=&quot;font-family: &amp;#34;monaco&amp;#34; , &amp;#34;menlo&amp;#34; , &amp;#34;monaco&amp;#34; , &amp;#34;courier new&amp;#34; , monospace ; line-height: 20px&quot;&gt;&lt;span style=&quot;color: #61afef&quot;&gt;tp=tcp_sk&lt;/span&gt;(sk)&lt;/div&gt;&lt;/div&gt;" style="shape=process;whiteSpace=wrap;html=1;backgroundOutline=1;size=0.043478260869565216;" vertex="1" parent="1">
                    <mxGeometry x="37.5" y="60" width="145" height="30" as="geometry"/>
                </mxCell>
                <mxCell id="38" style="edgeStyle=orthogonalEdgeStyle;rounded=0;orthogonalLoop=1;jettySize=auto;html=1;exitX=0.5;exitY=1;exitDx=0;exitDy=0;entryX=0.5;entryY=0;entryDx=0;entryDy=0;" edge="1" parent="1" source="34" target="2">
                    <mxGeometry relative="1" as="geometry"/>
                </mxCell>
                <mxCell id="34" value="&lt;div style=&quot;color: rgb(171 , 178 , 191) ; background-color: rgb(40 , 44 , 52) ; font-family: &amp;#34;monaco&amp;#34; , &amp;#34;menlo&amp;#34; , &amp;#34;monaco&amp;#34; , &amp;#34;courier new&amp;#34; , monospace ; font-size: 13px ; line-height: 20px&quot;&gt;&lt;div style=&quot;font-family: &amp;#34;monaco&amp;#34; , &amp;#34;menlo&amp;#34; , &amp;#34;monaco&amp;#34; , &amp;#34;courier new&amp;#34; , monospace ; line-height: 20px&quot;&gt;&lt;span style=&quot;color: #61afef&quot;&gt;icsk=inet_csk&lt;/span&gt;(sk)&lt;/div&gt;&lt;/div&gt;" style="shape=process;whiteSpace=wrap;html=1;backgroundOutline=1;size=0.043478260869565216;" vertex="1" parent="1">
                    <mxGeometry x="27.5" y="120" width="165" height="30" as="geometry"/>
                </mxCell>
                <mxCell id="48" style="edgeStyle=orthogonalEdgeStyle;rounded=0;orthogonalLoop=1;jettySize=auto;html=1;exitX=1;exitY=0.5;exitDx=0;exitDy=0;entryX=0;entryY=0.5;entryDx=0;entryDy=0;" edge="1" parent="1" source="43" target="46">
                    <mxGeometry relative="1" as="geometry"/>
                </mxCell>
                <mxCell id="49" value="Y" style="edgeLabel;html=1;align=center;verticalAlign=middle;resizable=0;points=[];" vertex="1" connectable="0" parent="48">
                    <mxGeometry x="-0.1" y="-1" relative="1" as="geometry">
                        <mxPoint as="offset"/>
                    </mxGeometry>
                </mxCell>
                <mxCell id="51" value="N" style="edgeStyle=orthogonalEdgeStyle;rounded=0;orthogonalLoop=1;jettySize=auto;html=1;exitX=0.5;exitY=1;exitDx=0;exitDy=0;entryX=0.5;entryY=0;entryDx=0;entryDy=0;" edge="1" parent="1" source="43" target="50">
                    <mxGeometry relative="1" as="geometry"/>
                </mxCell>
                <mxCell id="43" value="TCP_SYN_SENT" style="rhombus;whiteSpace=wrap;html=1;" vertex="1" parent="1">
                    <mxGeometry x="70" y="540" width="80" height="30" as="geometry"/>
                </mxCell>
                <mxCell id="46" value="&lt;div style=&quot;background-color: rgb(40 , 44 , 52) ; font-family: &amp;#34;monaco&amp;#34; , &amp;#34;menlo&amp;#34; , &amp;#34;monaco&amp;#34; , &amp;#34;courier new&amp;#34; , monospace ; font-size: 13px ; line-height: 20px&quot;&gt;&lt;font color=&quot;#61afef&quot;&gt;tcp_rcv_synsent_state_process&lt;/font&gt;&lt;/div&gt;" style="shape=process;whiteSpace=wrap;html=1;backgroundOutline=1;size=0.043478260869565216;" vertex="1" parent="1">
                    <mxGeometry x="240" y="540" width="260" height="30" as="geometry"/>
                </mxCell>
                <mxCell id="53" style="edgeStyle=orthogonalEdgeStyle;rounded=0;orthogonalLoop=1;jettySize=auto;html=1;exitX=1;exitY=0.5;exitDx=0;exitDy=0;entryX=0;entryY=0.5;entryDx=0;entryDy=0;" edge="1" parent="1" source="50" target="52">
                    <mxGeometry relative="1" as="geometry"/>
                </mxCell>
                <mxCell id="54" value="Y" style="edgeLabel;html=1;align=center;verticalAlign=middle;resizable=0;points=[];" vertex="1" connectable="0" parent="53">
                    <mxGeometry x="-0.1259" y="2" relative="1" as="geometry">
                        <mxPoint as="offset"/>
                    </mxGeometry>
                </mxCell>
                <mxCell id="56" value="N" style="edgeStyle=orthogonalEdgeStyle;rounded=0;orthogonalLoop=1;jettySize=auto;html=1;exitX=0.5;exitY=1;exitDx=0;exitDy=0;" edge="1" parent="1" source="50" target="55">
                    <mxGeometry relative="1" as="geometry"/>
                </mxCell>
                <mxCell id="50" value="!th-&amp;gt;ack &amp;amp;&amp;amp; ! th-&amp;gt;rst &amp;amp;&amp;amp; ! th-&amp;gt;syn" style="rhombus;whiteSpace=wrap;html=1;" vertex="1" parent="1">
                    <mxGeometry x="-15" y="610" width="250" height="40" as="geometry"/>
                </mxCell>
                <mxCell id="52" value="&lt;div style=&quot;color: rgb(171 , 178 , 191) ; background-color: rgb(40 , 44 , 52) ; font-family: &amp;#34;monaco&amp;#34; , &amp;#34;menlo&amp;#34; , &amp;#34;monaco&amp;#34; , &amp;#34;courier new&amp;#34; , monospace ; font-size: 13px ; line-height: 20px&quot;&gt;discard&lt;/div&gt;" style="rounded=0;whiteSpace=wrap;html=1;" vertex="1" parent="1">
                    <mxGeometry x="360" y="615" width="120" height="30" as="geometry"/>
                </mxCell>
                <mxCell id="58" style="edgeStyle=orthogonalEdgeStyle;rounded=0;orthogonalLoop=1;jettySize=auto;html=1;exitX=0.5;exitY=1;exitDx=0;exitDy=0;entryX=0.5;entryY=0;entryDx=0;entryDy=0;" edge="1" parent="1" source="55" target="57">
                    <mxGeometry relative="1" as="geometry"/>
                </mxCell>
                <mxCell id="55" value="&lt;div style=&quot;background-color: rgb(40 , 44 , 52) ; font-family: &amp;#34;monaco&amp;#34; , &amp;#34;menlo&amp;#34; , &amp;#34;monaco&amp;#34; , &amp;#34;courier new&amp;#34; , monospace ; font-size: 13px ; line-height: 20px&quot;&gt;&lt;div style=&quot;font-family: &amp;#34;monaco&amp;#34; , &amp;#34;menlo&amp;#34; , &amp;#34;monaco&amp;#34; , &amp;#34;courier new&amp;#34; , monospace ; line-height: 20px&quot;&gt;&lt;font color=&quot;#61afef&quot;&gt;acceptable = tcp_ack&lt;/font&gt;&lt;font color=&quot;#abb2bf&quot;&gt;(sk)&lt;/font&gt;&lt;/div&gt;&lt;/div&gt;" style="shape=process;whiteSpace=wrap;html=1;backgroundOutline=1;size=0.043478260869565216;" vertex="1" parent="1">
                    <mxGeometry x="-2.5" y="690" width="225" height="30" as="geometry"/>
                </mxCell>
                <mxCell id="60" style="edgeStyle=orthogonalEdgeStyle;rounded=0;orthogonalLoop=1;jettySize=auto;html=1;exitX=1;exitY=0.5;exitDx=0;exitDy=0;" edge="1" parent="1" source="57" target="59">
                    <mxGeometry relative="1" as="geometry"/>
                </mxCell>
                <mxCell id="61" value="Y" style="edgeLabel;html=1;align=center;verticalAlign=middle;resizable=0;points=[];" vertex="1" connectable="0" parent="60">
                    <mxGeometry x="-0.1448" y="3" relative="1" as="geometry">
                        <mxPoint as="offset"/>
                    </mxGeometry>
                </mxCell>
                <mxCell id="76" style="edgeStyle=orthogonalEdgeStyle;rounded=0;orthogonalLoop=1;jettySize=auto;html=1;exitX=0.5;exitY=1;exitDx=0;exitDy=0;entryX=0.5;entryY=0;entryDx=0;entryDy=0;" edge="1" parent="1" source="57" target="75">
                    <mxGeometry relative="1" as="geometry"/>
                </mxCell>
                <mxCell id="77" value="N" style="edgeLabel;html=1;align=center;verticalAlign=middle;resizable=0;points=[];" vertex="1" connectable="0" parent="76">
                    <mxGeometry x="-0.2" y="3" relative="1" as="geometry">
                        <mxPoint as="offset"/>
                    </mxGeometry>
                </mxCell>
                <mxCell id="57" value="TCP_SYN_RECV" style="rhombus;whiteSpace=wrap;html=1;" vertex="1" parent="1">
                    <mxGeometry x="70" y="760" width="80" height="30" as="geometry"/>
                </mxCell>
                <mxCell id="63" value="Y" style="edgeStyle=orthogonalEdgeStyle;rounded=0;orthogonalLoop=1;jettySize=auto;html=1;exitX=1;exitY=0.5;exitDx=0;exitDy=0;entryX=0;entryY=0.5;entryDx=0;entryDy=0;" edge="1" parent="1" source="59" target="62">
                    <mxGeometry relative="1" as="geometry"/>
                </mxCell>
                <mxCell id="67" value="N" style="edgeStyle=orthogonalEdgeStyle;rounded=0;orthogonalLoop=1;jettySize=auto;html=1;exitX=0.5;exitY=1;exitDx=0;exitDy=0;entryX=0;entryY=0.5;entryDx=0;entryDy=0;" edge="1" parent="1" source="59" target="64">
                    <mxGeometry relative="1" as="geometry"/>
                </mxCell>
                <mxCell id="59" value="!acceptable" style="rhombus;whiteSpace=wrap;html=1;" vertex="1" parent="1">
                    <mxGeometry x="420" y="760" width="80" height="30" as="geometry"/>
                </mxCell>
                <mxCell id="62" value="&lt;div style=&quot;color: rgb(171 , 178 , 191) ; background-color: rgb(40 , 44 , 52) ; font-family: &amp;#34;monaco&amp;#34; , &amp;#34;menlo&amp;#34; , &amp;#34;monaco&amp;#34; , &amp;#34;courier new&amp;#34; , monospace ; font-size: 13px ; line-height: 20px&quot;&gt;return 1&lt;/div&gt;" style="rounded=0;whiteSpace=wrap;html=1;" vertex="1" parent="1">
                    <mxGeometry x="635" y="760" width="120" height="30" as="geometry"/>
                </mxCell>
                <mxCell id="70" style="edgeStyle=orthogonalEdgeStyle;rounded=0;orthogonalLoop=1;jettySize=auto;html=1;entryX=0.5;entryY=0;entryDx=0;entryDy=0;" edge="1" parent="1" source="64" target="69">
                    <mxGeometry relative="1" as="geometry"/>
                </mxCell>
                <mxCell id="64" value="&lt;div style=&quot;background-color: rgb(40 , 44 , 52) ; font-family: &amp;#34;monaco&amp;#34; , &amp;#34;menlo&amp;#34; , &amp;#34;monaco&amp;#34; , &amp;#34;courier new&amp;#34; , monospace ; font-size: 13px ; line-height: 20px&quot;&gt;&lt;div style=&quot;font-family: &amp;#34;monaco&amp;#34; , &amp;#34;menlo&amp;#34; , &amp;#34;monaco&amp;#34; , &amp;#34;courier new&amp;#34; , monospace ; line-height: 20px&quot;&gt;&lt;font color=&quot;#61afef&quot;&gt;tcp_init_buffer_space&lt;/font&gt;&lt;font color=&quot;#abb2bf&quot;&gt;(sk)&lt;/font&gt;&lt;/div&gt;&lt;/div&gt;" style="shape=process;whiteSpace=wrap;html=1;backgroundOutline=1;size=0.043478260869565216;" vertex="1" parent="1">
                    <mxGeometry x="596.5" y="820" width="225" height="30" as="geometry"/>
                </mxCell>
                <mxCell id="72" style="edgeStyle=orthogonalEdgeStyle;rounded=0;orthogonalLoop=1;jettySize=auto;html=1;exitX=0.5;exitY=1;exitDx=0;exitDy=0;entryX=0.5;entryY=0;entryDx=0;entryDy=0;" edge="1" parent="1" source="69" target="71">
                    <mxGeometry relative="1" as="geometry"/>
                </mxCell>
                <mxCell id="69" value="&lt;div style=&quot;background-color: rgb(40 , 44 , 52) ; font-family: &amp;#34;monaco&amp;#34; , &amp;#34;menlo&amp;#34; , &amp;#34;monaco&amp;#34; , &amp;#34;courier new&amp;#34; , monospace ; font-size: 13px ; line-height: 20px&quot;&gt;&lt;div style=&quot;font-family: &amp;#34;monaco&amp;#34; , &amp;#34;menlo&amp;#34; , &amp;#34;monaco&amp;#34; , &amp;#34;courier new&amp;#34; , monospace ; line-height: 20px&quot;&gt;&lt;div style=&quot;color: rgb(171 , 178 , 191) ; font-family: &amp;#34;monaco&amp;#34; , &amp;#34;menlo&amp;#34; , &amp;#34;monaco&amp;#34; , &amp;#34;courier new&amp;#34; , monospace ; line-height: 20px&quot;&gt;&lt;span style=&quot;color: #61afef&quot;&gt;tcp_set_state&lt;/span&gt;(&lt;span style=&quot;color: #e06c75&quot;&gt;sk&lt;/span&gt;,&lt;span style=&quot;color: #e06c75&quot;&gt; TCP_ESTABLISHED&lt;/span&gt;)&lt;/div&gt;&lt;/div&gt;&lt;/div&gt;" style="shape=process;whiteSpace=wrap;html=1;backgroundOutline=1;size=0.043478260869565216;" vertex="1" parent="1">
                    <mxGeometry x="556.5" y="910" width="305" height="30" as="geometry"/>
                </mxCell>
                <mxCell id="74" style="edgeStyle=orthogonalEdgeStyle;rounded=0;orthogonalLoop=1;jettySize=auto;html=1;exitX=0.5;exitY=1;exitDx=0;exitDy=0;entryX=0.5;entryY=0;entryDx=0;entryDy=0;" edge="1" parent="1" source="71" target="73">
                    <mxGeometry relative="1" as="geometry"/>
                </mxCell>
                <mxCell id="71" value="&lt;div style=&quot;color: rgb(171 , 178 , 191) ; background-color: rgb(40 , 44 , 52) ; font-family: &amp;#34;monaco&amp;#34; , &amp;#34;menlo&amp;#34; , &amp;#34;monaco&amp;#34; , &amp;#34;courier new&amp;#34; , monospace ; font-size: 13px ; line-height: 20px&quot;&gt;&lt;div&gt;&lt;span style=&quot;color: #e06c75&quot;&gt;tp&lt;/span&gt;-&amp;gt;&lt;span style=&quot;color: #e06c75&quot;&gt;snd_una&lt;/span&gt; &lt;span style=&quot;color: #c678dd&quot;&gt;=&lt;/span&gt; &lt;span style=&quot;color: #61afef&quot;&gt;TCP_SKB_CB&lt;/span&gt;(&lt;span style=&quot;color: #e06c75&quot;&gt;skb&lt;/span&gt;)&lt;span style=&quot;color: #c678dd&quot;&gt;-&amp;gt;&lt;/span&gt;ack_seq;&lt;/div&gt;&lt;div&gt;        &lt;span style=&quot;color: #e06c75&quot;&gt;tp&lt;/span&gt;-&amp;gt;&lt;span style=&quot;color: #e06c75&quot;&gt;snd_wnd&lt;/span&gt; &lt;span style=&quot;color: #c678dd&quot;&gt;=&lt;/span&gt; &lt;span style=&quot;color: #61afef&quot;&gt;ntohs&lt;/span&gt;(&lt;span style=&quot;color: #e06c75&quot;&gt;th&lt;/span&gt;&lt;span style=&quot;color: #c678dd&quot;&gt;-&amp;gt;&lt;/span&gt;&lt;span style=&quot;color: #e06c75 ; font-style: italic&quot;&gt;window&lt;/span&gt;) &lt;span style=&quot;color: #c678dd&quot;&gt;&amp;lt;&amp;lt;&lt;/span&gt; &lt;span style=&quot;color: #e06c75&quot;&gt;tp&lt;/span&gt;-&amp;gt;&lt;span style=&quot;color: #e06c75&quot;&gt;rx_opt&lt;/span&gt;.&lt;span style=&quot;color: #e06c75&quot;&gt;snd_wscale&lt;/span&gt;;&lt;/div&gt;&lt;div&gt;        &lt;span style=&quot;color: #61afef&quot;&gt;tcp_init_wl&lt;/span&gt;(&lt;span style=&quot;color: #e06c75&quot;&gt;tp&lt;/span&gt;,&lt;span style=&quot;color: #e06c75&quot;&gt; &lt;/span&gt;&lt;span style=&quot;color: #61afef&quot;&gt;TCP_SKB_CB&lt;/span&gt;(&lt;span style=&quot;color: #e06c75&quot;&gt;skb&lt;/span&gt;)&lt;span style=&quot;color: #c678dd&quot;&gt;-&amp;gt;&lt;/span&gt;&lt;span style=&quot;color: #e06c75 ; font-style: italic&quot;&gt;seq&lt;/span&gt;);&lt;/div&gt;&lt;div&gt;        &lt;span style=&quot;color: #61afef&quot;&gt;tcp_synack_rtt_meas&lt;/span&gt;(&lt;span style=&quot;color: #e06c75&quot;&gt;sk&lt;/span&gt;,&lt;span style=&quot;color: #e06c75&quot;&gt; synack_stamp&lt;/span&gt;);&lt;/div&gt;&lt;/div&gt;" style="rounded=0;whiteSpace=wrap;html=1;" vertex="1" parent="1">
                    <mxGeometry x="474" y="990" width="470" height="90" as="geometry"/>
                </mxCell>
                <mxCell id="73" value="&lt;div style=&quot;background-color: rgb(40 , 44 , 52) ; font-family: &amp;#34;monaco&amp;#34; , &amp;#34;menlo&amp;#34; , &amp;#34;monaco&amp;#34; , &amp;#34;courier new&amp;#34; , monospace ; font-size: 13px ; line-height: 20px&quot;&gt;&lt;div style=&quot;font-family: &amp;#34;monaco&amp;#34; , &amp;#34;menlo&amp;#34; , &amp;#34;monaco&amp;#34; , &amp;#34;courier new&amp;#34; , monospace ; line-height: 20px&quot;&gt;&lt;span style=&quot;color: rgb(97 , 175 , 239) ; font-family: &amp;#34;monaco&amp;#34; , &amp;#34;menlo&amp;#34; , &amp;#34;monaco&amp;#34; , &amp;#34;courier new&amp;#34; , monospace&quot;&gt;tcp_initialize_rcv_mss&lt;/span&gt;&lt;font color=&quot;#abb2bf&quot;&gt;(sk)&lt;/font&gt;&lt;/div&gt;&lt;/div&gt;" style="shape=process;whiteSpace=wrap;html=1;backgroundOutline=1;size=0.043478260869565216;" vertex="1" parent="1">
                    <mxGeometry x="599" y="1119" width="225" height="30" as="geometry"/>
                </mxCell>
                <mxCell id="79" style="edgeStyle=orthogonalEdgeStyle;rounded=0;orthogonalLoop=1;jettySize=auto;html=1;exitX=1;exitY=0.5;exitDx=0;exitDy=0;entryX=0;entryY=0.5;entryDx=0;entryDy=0;" edge="1" parent="1" source="75" target="78">
                    <mxGeometry relative="1" as="geometry"/>
                </mxCell>
                <mxCell id="80" value="Y" style="edgeLabel;html=1;align=center;verticalAlign=middle;resizable=0;points=[];" vertex="1" connectable="0" parent="79">
                    <mxGeometry x="-0.1429" relative="1" as="geometry">
                        <mxPoint as="offset"/>
                    </mxGeometry>
                </mxCell>
                <mxCell id="93" value="N" style="edgeStyle=orthogonalEdgeStyle;rounded=0;orthogonalLoop=1;jettySize=auto;html=1;exitX=0.5;exitY=1;exitDx=0;exitDy=0;entryX=0.5;entryY=0;entryDx=0;entryDy=0;" edge="1" parent="1" source="75" target="92">
                    <mxGeometry relative="1" as="geometry"/>
                </mxCell>
                <mxCell id="75" value="TCP_FIN_WAIT1" style="rhombus;whiteSpace=wrap;html=1;" vertex="1" parent="1">
                    <mxGeometry x="70" y="880" width="80" height="30" as="geometry"/>
                </mxCell>
                <mxCell id="84" style="edgeStyle=orthogonalEdgeStyle;rounded=0;orthogonalLoop=1;jettySize=auto;html=1;exitX=0.5;exitY=1;exitDx=0;exitDy=0;entryX=0.5;entryY=0;entryDx=0;entryDy=0;" edge="1" parent="1" source="78" target="83">
                    <mxGeometry relative="1" as="geometry"/>
                </mxCell>
                <mxCell id="78" value="&lt;div style=&quot;background-color: rgb(40 , 44 , 52) ; font-family: &amp;#34;monaco&amp;#34; , &amp;#34;menlo&amp;#34; , &amp;#34;monaco&amp;#34; , &amp;#34;courier new&amp;#34; , monospace ; font-size: 13px ; line-height: 20px&quot;&gt;&lt;div style=&quot;font-family: &amp;#34;monaco&amp;#34; , &amp;#34;menlo&amp;#34; , &amp;#34;monaco&amp;#34; , &amp;#34;courier new&amp;#34; , monospace ; line-height: 20px&quot;&gt;&lt;font color=&quot;#61afef&quot;&gt;tcp_set_state&lt;/font&gt;&lt;font color=&quot;#abb2bf&quot;&gt;(TCP_FIN_WAIT2)&lt;/font&gt;&lt;/div&gt;&lt;/div&gt;" style="shape=process;whiteSpace=wrap;html=1;backgroundOutline=1;size=0.043478260869565216;" vertex="1" parent="1">
                    <mxGeometry x="220" y="880" width="225" height="30" as="geometry"/>
                </mxCell>
                <mxCell id="88" style="edgeStyle=orthogonalEdgeStyle;rounded=0;orthogonalLoop=1;jettySize=auto;html=1;exitX=1;exitY=0.5;exitDx=0;exitDy=0;entryX=0;entryY=0.5;entryDx=0;entryDy=0;" edge="1" parent="1" source="83" target="87">
                    <mxGeometry relative="1" as="geometry"/>
                </mxCell>
                <mxCell id="89" value="Y" style="edgeLabel;html=1;align=center;verticalAlign=middle;resizable=0;points=[];" vertex="1" connectable="0" parent="88">
                    <mxGeometry x="-0.3976" y="2" relative="1" as="geometry">
                        <mxPoint x="1" as="offset"/>
                    </mxGeometry>
                </mxCell>
                <mxCell id="91" value="N" style="edgeStyle=orthogonalEdgeStyle;rounded=0;orthogonalLoop=1;jettySize=auto;html=1;exitX=0.5;exitY=1;exitDx=0;exitDy=0;" edge="1" parent="1" source="83" target="90">
                    <mxGeometry relative="1" as="geometry"/>
                </mxCell>
                <mxCell id="83" value="fin_timeout" style="rhombus;whiteSpace=wrap;html=1;" vertex="1" parent="1">
                    <mxGeometry x="292.5" y="940" width="80" height="30" as="geometry"/>
                </mxCell>
                <mxCell id="87" value="&lt;div style=&quot;background-color: rgb(40 , 44 , 52) ; font-family: &amp;#34;monaco&amp;#34; , &amp;#34;menlo&amp;#34; , &amp;#34;monaco&amp;#34; , &amp;#34;courier new&amp;#34; , monospace ; font-size: 13px ; line-height: 20px&quot;&gt;&lt;div style=&quot;font-family: &amp;#34;monaco&amp;#34; , &amp;#34;menlo&amp;#34; , &amp;#34;monaco&amp;#34; , &amp;#34;courier new&amp;#34; , monospace ; line-height: 20px&quot;&gt;&lt;span style=&quot;color: rgb(97 , 175 , 239) ; text-align: left&quot;&gt;sk_reset_timer&lt;/span&gt;&lt;br&gt;&lt;/div&gt;&lt;/div&gt;" style="shape=process;whiteSpace=wrap;html=1;backgroundOutline=1;size=0.043478260869565216;" vertex="1" parent="1">
                    <mxGeometry x="414" y="940" width="140" height="30" as="geometry"/>
                </mxCell>
                <mxCell id="90" value="&lt;div style=&quot;background-color: rgb(40 , 44 , 52) ; font-family: &amp;#34;monaco&amp;#34; , &amp;#34;menlo&amp;#34; , &amp;#34;monaco&amp;#34; , &amp;#34;courier new&amp;#34; , monospace ; font-size: 13px ; line-height: 20px&quot;&gt;&lt;div style=&quot;font-family: &amp;#34;monaco&amp;#34; , &amp;#34;menlo&amp;#34; , &amp;#34;monaco&amp;#34; , &amp;#34;courier new&amp;#34; , monospace ; line-height: 20px&quot;&gt;&lt;span style=&quot;color: rgb(97 , 175 , 239) ; text-align: left&quot;&gt;tcp_time_wait&lt;/span&gt;&lt;span style=&quot;color: rgb(171 , 178 , 191)&quot;&gt;(TCP_FIN_WAIT2)&lt;/span&gt;&lt;br&gt;&lt;/div&gt;&lt;/div&gt;" style="shape=process;whiteSpace=wrap;html=1;backgroundOutline=1;size=0.043478260869565216;" vertex="1" parent="1">
                    <mxGeometry x="227.5" y="1000" width="210" height="30" as="geometry"/>
                </mxCell>
                <mxCell id="95" style="edgeStyle=orthogonalEdgeStyle;rounded=0;orthogonalLoop=1;jettySize=auto;html=1;exitX=1;exitY=0.5;exitDx=0;exitDy=0;entryX=0;entryY=0.5;entryDx=0;entryDy=0;" edge="1" parent="1" source="92" target="94">
                    <mxGeometry relative="1" as="geometry"/>
                </mxCell>
                <mxCell id="96" value="Y" style="edgeLabel;html=1;align=center;verticalAlign=middle;resizable=0;points=[];" vertex="1" connectable="0" parent="95">
                    <mxGeometry x="-0.2" y="1" relative="1" as="geometry">
                        <mxPoint as="offset"/>
                    </mxGeometry>
                </mxCell>
                <mxCell id="98" style="edgeStyle=orthogonalEdgeStyle;rounded=0;orthogonalLoop=1;jettySize=auto;html=1;exitX=0.5;exitY=1;exitDx=0;exitDy=0;" edge="1" parent="1" source="92" target="97">
                    <mxGeometry relative="1" as="geometry"/>
                </mxCell>
                <mxCell id="99" value="N" style="edgeLabel;html=1;align=center;verticalAlign=middle;resizable=0;points=[];" vertex="1" connectable="0" parent="98">
                    <mxGeometry x="0.0244" y="5" relative="1" as="geometry">
                        <mxPoint x="-5" y="-5" as="offset"/>
                    </mxGeometry>
                </mxCell>
                <mxCell id="92" value="TCP_CLOSING" style="rhombus;whiteSpace=wrap;html=1;" vertex="1" parent="1">
                    <mxGeometry x="70" y="1050" width="80" height="30" as="geometry"/>
                </mxCell>
                <mxCell id="94" value="&lt;div style=&quot;background-color: rgb(40 , 44 , 52) ; font-family: &amp;#34;monaco&amp;#34; , &amp;#34;menlo&amp;#34; , &amp;#34;monaco&amp;#34; , &amp;#34;courier new&amp;#34; , monospace ; font-size: 13px ; line-height: 20px&quot;&gt;&lt;div style=&quot;font-family: &amp;#34;monaco&amp;#34; , &amp;#34;menlo&amp;#34; , &amp;#34;monaco&amp;#34; , &amp;#34;courier new&amp;#34; , monospace ; line-height: 20px&quot;&gt;&lt;span style=&quot;color: rgb(97 , 175 , 239) ; text-align: left&quot;&gt;tcp_time_wait&lt;/span&gt;&lt;span style=&quot;color: rgb(171 , 178 , 191)&quot;&gt;(TCP_TIME_WAIT)&lt;/span&gt;&lt;br&gt;&lt;/div&gt;&lt;/div&gt;" style="shape=process;whiteSpace=wrap;html=1;backgroundOutline=1;size=0.043478260869565216;" vertex="1" parent="1">
                    <mxGeometry x="227.5" y="1050" width="210" height="30" as="geometry"/>
                </mxCell>
                <mxCell id="101" style="edgeStyle=orthogonalEdgeStyle;rounded=0;orthogonalLoop=1;jettySize=auto;html=1;exitX=1;exitY=0.5;exitDx=0;exitDy=0;entryX=0;entryY=0.5;entryDx=0;entryDy=0;" edge="1" parent="1" source="97" target="100">
                    <mxGeometry relative="1" as="geometry"/>
                </mxCell>
                <mxCell id="102" value="Y" style="edgeLabel;html=1;align=center;verticalAlign=middle;resizable=0;points=[];" vertex="1" connectable="0" parent="101">
                    <mxGeometry x="0.0323" y="-2" relative="1" as="geometry">
                        <mxPoint as="offset"/>
                    </mxGeometry>
                </mxCell>
                <mxCell id="111" value="N" style="edgeStyle=orthogonalEdgeStyle;rounded=0;orthogonalLoop=1;jettySize=auto;html=1;exitX=0.5;exitY=1;exitDx=0;exitDy=0;entryX=0.5;entryY=0;entryDx=0;entryDy=0;" edge="1" parent="1" source="97" target="106">
                    <mxGeometry relative="1" as="geometry"/>
                </mxCell>
                <mxCell id="97" value="TCP_LAST_ACK" style="rhombus;whiteSpace=wrap;html=1;" vertex="1" parent="1">
                    <mxGeometry x="70" y="1119" width="80" height="30" as="geometry"/>
                </mxCell>
                <mxCell id="104" style="edgeStyle=orthogonalEdgeStyle;rounded=0;orthogonalLoop=1;jettySize=auto;html=1;exitX=0.5;exitY=1;exitDx=0;exitDy=0;entryX=0.5;entryY=0;entryDx=0;entryDy=0;" edge="1" parent="1" source="100" target="103">
                    <mxGeometry relative="1" as="geometry"/>
                </mxCell>
                <mxCell id="105" value="Y" style="edgeLabel;html=1;align=center;verticalAlign=middle;resizable=0;points=[];" vertex="1" connectable="0" parent="104">
                    <mxGeometry x="-0.0323" y="-2" relative="1" as="geometry">
                        <mxPoint as="offset"/>
                    </mxGeometry>
                </mxCell>
                <mxCell id="100" value="&lt;div style=&quot;color: rgb(171 , 178 , 191) ; background-color: rgb(40 , 44 , 52) ; font-family: &amp;#34;monaco&amp;#34; , &amp;#34;menlo&amp;#34; , &amp;#34;monaco&amp;#34; , &amp;#34;courier new&amp;#34; , monospace ; font-size: 13px ; line-height: 20px&quot;&gt;tp&lt;span style=&quot;color: #c678dd&quot;&gt;-&amp;gt;&lt;/span&gt;snd_una &lt;span style=&quot;color: #c678dd&quot;&gt;==&lt;/span&gt; tp&lt;span style=&quot;color: #c678dd&quot;&gt;-&amp;gt;&lt;/span&gt;write_seq&lt;/div&gt;" style="rhombus;whiteSpace=wrap;html=1;" vertex="1" parent="1">
                    <mxGeometry x="227.5" y="1119" width="222.5" height="30" as="geometry"/>
                </mxCell>
                <mxCell id="103" value="&lt;div style=&quot;background-color: rgb(40 , 44 , 52) ; font-family: &amp;#34;monaco&amp;#34; , &amp;#34;menlo&amp;#34; , &amp;#34;monaco&amp;#34; , &amp;#34;courier new&amp;#34; , monospace ; font-size: 13px ; line-height: 20px&quot;&gt;&lt;div style=&quot;text-align: left ; font-family: &amp;#34;monaco&amp;#34; , &amp;#34;menlo&amp;#34; , &amp;#34;monaco&amp;#34; , &amp;#34;courier new&amp;#34; , monospace ; line-height: 20px&quot;&gt;&lt;font color=&quot;#61afef&quot;&gt;tcp_done&lt;/font&gt;&lt;span style=&quot;color: rgb(171 , 178 , 191)&quot;&gt;(sk)&lt;/span&gt;&lt;br&gt;&lt;/div&gt;&lt;/div&gt;" style="shape=process;whiteSpace=wrap;html=1;backgroundOutline=1;size=0.043478260869565216;" vertex="1" parent="1">
                    <mxGeometry x="275.63" y="1190" width="126.25" height="30" as="geometry"/>
                </mxCell>
                <mxCell id="109" style="edgeStyle=orthogonalEdgeStyle;rounded=0;orthogonalLoop=1;jettySize=auto;html=1;exitX=1;exitY=0.5;exitDx=0;exitDy=0;" edge="1" parent="1" source="106" target="108">
                    <mxGeometry relative="1" as="geometry"/>
                </mxCell>
                <mxCell id="110" value="Y" style="edgeLabel;html=1;align=center;verticalAlign=middle;resizable=0;points=[];" vertex="1" connectable="0" parent="109">
                    <mxGeometry x="-0.2666" y="-1" relative="1" as="geometry">
                        <mxPoint as="offset"/>
                    </mxGeometry>
                </mxCell>
                <mxCell id="106" value="TCP_CLOSE_WAIT ||&lt;br&gt;TCP_CLOSING&lt;br&gt;||&lt;br&gt;TCP_LAST_ACK&lt;br&gt;||&lt;br&gt;TCP_FIN_WAIT1&lt;br&gt;||&lt;br&gt;TCP_FIN_WAIT2&lt;br&gt;||&lt;br&gt;TCP_ESTABLISHED" style="rhombus;whiteSpace=wrap;html=1;" vertex="1" parent="1">
                    <mxGeometry x="59" y="1320" width="102" height="32" as="geometry"/>
                </mxCell>
                <mxCell id="108" value="&lt;div style=&quot;background-color: rgb(40 , 44 , 52) ; font-family: &amp;#34;monaco&amp;#34; , &amp;#34;menlo&amp;#34; , &amp;#34;monaco&amp;#34; , &amp;#34;courier new&amp;#34; , monospace ; font-size: 13px ; line-height: 20px&quot;&gt;&lt;div style=&quot;text-align: left ; font-family: &amp;#34;monaco&amp;#34; , &amp;#34;menlo&amp;#34; , &amp;#34;monaco&amp;#34; , &amp;#34;courier new&amp;#34; , monospace ; line-height: 20px&quot;&gt;&lt;font color=&quot;#61afef&quot;&gt;tcp_datadata_queue&lt;/font&gt;&lt;span style=&quot;color: rgb(171 , 178 , 191)&quot;&gt;(sk)&lt;/span&gt;&lt;br&gt;&lt;/div&gt;&lt;/div&gt;" style="shape=process;whiteSpace=wrap;html=1;backgroundOutline=1;size=0.043478260869565216;" vertex="1" parent="1">
                    <mxGeometry x="270" y="1321" width="224.38" height="30" as="geometry"/>
                </mxCell>
            </root>
        </mxGraphModel>
    </diagram>
</mxfile>